<svg
            xmlns="http://www.w3.org/2000/svg"
            width="56"
            height="56"
            viewBox="0 0 56 56"
            fill="#0d74ce"
          >
            <path
              d="M28.0513 0.555664H27.9997C20.7211 0.555664 13.7406 3.44708 8.59383 8.59383C3.44708 13.7406 0.555664 20.7211 0.555664 27.9997C0.555664 35.2783 3.44708 42.2588 8.59383 47.4055C13.7406 52.5522 20.7211 55.4437 27.9997 55.4437C28.2384 55.4437 28.4673 55.3488 28.6361 55.1801C28.8048 55.0113 28.8997 54.7824 28.8997 54.5437C28.8997 54.305 28.8048 54.076 28.6361 53.9073C28.4673 53.7385 28.2384 53.6437 27.9997 53.6437C21.1985 53.6437 14.6758 50.9419 9.86662 46.1327C5.05743 41.3235 2.35566 34.8009 2.35566 27.9997C2.35566 21.1985 5.05743 14.6758 9.86662 9.86662C14.6758 5.05743 21.1985 2.35566 27.9997 2.35566H28.0483C32.7303 2.36489 37.3204 3.65562 41.321 6.08793C45.3217 8.52023 48.5802 12.0013 50.7432 16.1537C52.9062 20.3061 53.8913 24.9714 53.5915 29.6438C53.2918 34.3162 51.7187 38.8175 49.0429 42.6595C48.6471 43.2255 48.1317 43.6975 47.5332 44.0423C46.9348 44.387 46.2678 44.596 45.5797 44.6545C44.8779 44.7161 44.1711 44.6232 43.509 44.3824C42.847 44.1416 42.2457 43.7587 41.7475 43.2607L40.8997 42.4099C41.2261 42.2149 41.5471 42.0067 41.8597 41.7823C42.4899 41.3404 43.0804 40.8443 43.6243 40.2997H43.6273C44.0908 39.8293 44.3499 39.1949 44.3479 38.5345C44.346 37.8741 44.0833 37.2411 43.6171 36.7735L38.9563 32.1181C38.4879 31.6509 37.8534 31.3886 37.192 31.3886C36.5305 31.3886 35.896 31.6509 35.4277 32.1181L34.7317 32.8117C34.5028 33.0388 34.2517 33.2424 33.9823 33.4195C33.0875 33.998 32.0218 34.2532 30.9621 34.1426C29.9024 34.032 28.9123 33.5624 28.1563 32.8117L22.0657 26.7211C21.4932 26.143 21.1726 25.362 21.1737 24.5484C21.1748 23.7349 21.4976 22.9548 22.0717 22.3783L23.8813 20.5597C24.1135 20.3286 24.2979 20.0539 24.4236 19.7514C24.5494 19.4489 24.6142 19.1245 24.6142 18.7969C24.6142 18.4692 24.5494 18.1448 24.4236 17.8423C24.2979 17.5398 24.1135 17.2651 23.8813 17.0341L19.2283 12.3817C18.9979 12.1478 18.7232 11.9623 18.4201 11.8361C18.1171 11.7099 17.7919 11.6455 17.4637 11.6467C16.8377 11.6443 16.2342 11.8803 15.7759 12.3067C15.7481 12.3284 15.7216 12.3519 15.6967 12.3769C15.1563 12.9179 14.6625 13.5036 14.2207 14.1277C12.4986 16.5284 11.5917 19.4181 11.6331 22.3724C11.6746 25.3267 12.6623 28.1898 14.4511 30.5413C17.5922 34.7046 21.2994 38.4088 25.4653 41.5465C27.8744 43.3724 30.8135 44.3625 33.8365 44.3665C35.6825 44.3644 37.5091 43.9899 39.2071 43.2655L40.4743 44.5345C41.1573 45.22 41.9829 45.7468 42.8924 46.0776C43.8019 46.4084 44.773 46.535 45.7369 46.4485C46.6875 46.3671 47.6087 46.0777 48.4351 45.6007C49.2614 45.1237 49.9728 44.4709 50.5189 43.6885C53.383 39.5769 55.0669 34.7598 55.388 29.7593C55.709 24.7588 54.655 19.7658 52.3401 15.3218C50.0252 10.8777 46.5379 7.15226 42.2563 4.54928C37.9746 1.9463 33.062 0.565175 28.0513 0.555664ZM26.5513 40.1089C22.519 37.0737 18.9305 33.49 15.8899 29.4619C14.4453 27.5616 13.5993 25.2742 13.4598 22.8912C13.3202 20.5083 13.8934 18.1378 15.1063 16.0819L18.4381 19.4143C18.6069 19.5831 18.8359 19.678 19.0747 19.678C19.3134 19.678 19.5424 19.5831 19.7113 19.4143C19.8801 19.2454 19.975 19.0164 19.975 18.7777C19.975 18.5389 19.8801 18.3099 19.7113 18.1411L16.1503 14.5777C16.3903 14.2777 16.6423 13.9879 16.9129 13.7131C16.9369 13.6943 16.96 13.6743 16.9819 13.6531C17.1128 13.527 17.2877 13.457 17.4695 13.4576C17.6513 13.4583 17.8256 13.5297 17.9557 13.6567L22.6117 18.3127C22.6766 18.3772 22.7281 18.4539 22.7631 18.5385C22.7981 18.6231 22.816 18.7137 22.8157 18.8053C22.8156 18.8955 22.7975 18.9848 22.7624 19.0679C22.7274 19.151 22.6761 19.2264 22.6117 19.2895L20.7907 21.1159C19.8829 22.0307 19.3735 23.2672 19.3735 24.556C19.3735 25.8447 19.8829 27.0812 20.7907 27.9961L26.8837 34.0843C27.8427 35.035 29.0747 35.6623 30.4077 35.8786C31.7406 36.095 33.1078 35.8895 34.3183 35.2909L37.9783 38.9509C38.148 39.1148 38.3753 39.2055 38.6113 39.2035C38.8473 39.2014 39.073 39.1068 39.2399 38.9399C39.4068 38.773 39.5014 38.5473 39.5035 38.3113C39.5055 38.0753 39.4148 37.848 39.2509 37.6783L35.8237 34.2511C35.8837 34.1959 35.9491 34.1437 36.0037 34.0867L36.6997 33.3877C36.8303 33.2574 37.0072 33.1842 37.1917 33.1842C37.3761 33.1842 37.5531 33.2574 37.6837 33.3877L42.3445 38.0431C42.4747 38.1736 42.5483 38.3502 42.5492 38.5347C42.5501 38.7191 42.4783 38.8965 42.3493 39.0283C41.8778 39.5 41.3658 39.9295 40.8193 40.3117C38.732 41.8093 36.2193 42.5978 33.6507 42.5613C31.082 42.5248 28.5927 41.6652 26.5489 40.1089H26.5513Z"
              fill="#0d74ce"
            />
          </svg>